<svg xmlns="http://www.w3.org/2000/svg" width="1040" height="560" viewBox="0 0 1040 560">
<style>
text{font-family:Arial,'Microsoft YaHei',sans-serif;fill:#1f2937}
.title{font-size:20px;font-weight:700}.subtitle{font-size:13px;fill:#52616f}
.axis{font-size:12px;fill:#52616f}.label{font-size:12px}.value{font-size:12px;font-weight:700}
</style>
<rect width="1040" height="560" fill="#ffffff"/>
<text x="34" y="34" class="title">失败阶段数量变化下的恢复流程成本</text>
<text x="34" y="58" class="subtitle">普通路径重复扫描和拼接状态；AgentOS 路径使用结构化 action、幂等记录、事件通知和来源追踪。</text>
<line x1="96" y1="484.0" x2="980" y2="484.0" stroke="#d8dee6" stroke-width="1"/>
<text x="84" y="488.0" text-anchor="end" class="axis">0</text>
<line x1="96" y1="407.6" x2="980" y2="407.6" stroke="#d8dee6" stroke-width="1"/>
<text x="84" y="411.6" text-anchor="end" class="axis">58.8</text>
<line x1="96" y1="331.2" x2="980" y2="331.2" stroke="#d8dee6" stroke-width="1"/>
<text x="84" y="335.2" text-anchor="end" class="axis">117.6</text>
<line x1="96" y1="254.8" x2="980" y2="254.8" stroke="#d8dee6" stroke-width="1"/>
<text x="84" y="258.8" text-anchor="end" class="axis">176.4</text>
<line x1="96" y1="178.4" x2="980" y2="178.4" stroke="#d8dee6" stroke-width="1"/>
<text x="84" y="182.4" text-anchor="end" class="axis">235.2</text>
<line x1="96" y1="102.0" x2="980" y2="102.0" stroke="#d8dee6" stroke-width="1"/>
<text x="84" y="106.0" text-anchor="end" class="axis">294</text>
<polyline points="96.0,430.7 390.7,371.0 685.3,281.3 980.0,102.0" fill="none" stroke="#4c78a8" stroke-width="3"/>
<polyline points="96.0,460.6 390.7,439.8 685.3,408.6 980.0,346.3" fill="none" stroke="#f58518" stroke-width="3"/>
<text x="96.0" y="522" text-anchor="middle" class="label">1</text>
<circle cx="96.0" cy="430.7" r="4" fill="#4c78a8"/>
<text x="96.0" y="420.7" text-anchor="middle" class="axis">41</text>
<circle cx="96.0" cy="460.6" r="4" fill="#f58518"/>
<text x="96.0" y="478.6" text-anchor="middle" class="axis">18</text>
<text x="390.7" y="522" text-anchor="middle" class="label">3</text>
<circle cx="390.7" cy="371.0" r="4" fill="#4c78a8"/>
<text x="390.7" y="361.0" text-anchor="middle" class="axis">87</text>
<circle cx="390.7" cy="439.8" r="4" fill="#f58518"/>
<text x="390.7" y="457.8" text-anchor="middle" class="axis">34</text>
<text x="685.3" y="522" text-anchor="middle" class="label">6</text>
<circle cx="685.3" cy="281.3" r="4" fill="#4c78a8"/>
<text x="685.3" y="271.3" text-anchor="middle" class="axis">156</text>
<circle cx="685.3" cy="408.6" r="4" fill="#f58518"/>
<text x="685.3" y="426.6" text-anchor="middle" class="axis">58</text>
<text x="980.0" y="522" text-anchor="middle" class="label">12</text>
<circle cx="980.0" cy="102.0" r="4" fill="#4c78a8"/>
<text x="980.0" y="92.0" text-anchor="middle" class="axis">294</text>
<circle cx="980.0" cy="346.3" r="4" fill="#f58518"/>
<text x="980.0" y="364.3" text-anchor="middle" class="axis">106</text>
<rect x="754" y="78" width="14" height="14" fill="#4c78a8"/>
<text x="774" y="90" class="label">用户态恢复步骤</text>
<rect x="754" y="102" width="14" height="14" fill="#f58518"/>
<text x="774" y="114" class="label">AgentOS 结构化恢复动作</text>
<text x="96" y="546" class="subtitle">横轴为失败阶段数；纵轴为恢复流程步骤或结构化动作成本。</text>
</svg>
